<svg width="640" height="480" viewBox="0 0 640 480" fill="none" xmlns="http://www.w3.org/2000/svg">
  <rect width="640" height="480" rx="32" fill="url(#paint0_linear)"/>
  <g opacity="0.9" stroke="#F8F9FF" stroke-width="4" stroke-linecap="round" stroke-linejoin="round">
    <path d="M144 144h96M192 96v192M248 192c0 39.764-32.236 72-72 72s-72-32.236-72-72 32.236-72 72-72"/>
    <path d="M344 128l40 80h-80l40 80"/>
    <path d="M480 112c22.091 0 40 17.909 40 40 0 19.882-14.539 36.407-33.601 39.399L520 312h-80"/>
    <path d="M112 360h416"/>
  </g>
  <g opacity="0.35" stroke="#F8F9FF" stroke-width="2" stroke-dasharray="8 16">
    <path d="M96 80h448"/>
    <path d="M96 400h448"/>
    <path d="M80 112v256"/>
    <path d="M560 112v256"/>
    <circle cx="192" cy="192" r="128"/>
    <circle cx="448" cy="192" r="128"/>
  </g>
  <defs>
    <linearGradient id="paint0_linear" x1="96" y1="32" x2="544" y2="448" gradientUnits="userSpaceOnUse">
      <stop stop-color="#1D2B64"/>
      <stop offset="1" stop-color="#3A7BD5"/>
    </linearGradient>
  </defs>
</svg>